<svg width="45" height="33" viewBox="0 0 45 33" fill="none" xmlns="http://www.w3.org/2000/svg">
<path d="M10.5939 2.64649C14.8025 2.64649 18.0314 3.80108 20.2808 6.11027C22.5302 8.41946 23.6549 11.6238 23.6549 15.7232C23.6549 20.3416 22.1674 23.8703 19.1924 26.3092C18.0798 27.2432 16.8221 27.8919 15.4192 28.2551C14.0164 28.5924 12.408 28.7611 10.5939 28.7611H0V26.8541L2.21312 26.6595L2.7936 26.0368V5.37081L2.21312 4.74811L0 4.55351V2.64649H10.5939ZM7.58264 4.82595V26.5816H9.68692C15.3951 26.5816 18.2491 22.9492 18.2491 15.6843C18.2491 8.44541 15.3951 4.82595 9.68692 4.82595H7.58264Z" fill="#0D6EFD"/>
<path d="M30.6506 0H32.392V11.1308C34.3512 9.96324 36.1048 9.37946 37.6527 9.37946C39.0314 9.37946 40.2528 9.75568 41.3171 10.5081C42.4055 11.2346 43.252 12.2595 43.8567 13.5827C44.4856 14.9059 44.8 16.4497 44.8 18.2141C44.8 20.4714 44.3042 22.4173 43.3125 24.0519C42.345 25.6865 40.9301 26.9578 39.0677 27.8659C37.7374 28.4886 35.6815 28.8 32.9 28.8C32.7307 28.8 32.5614 28.8 32.392 28.8C32.2469 28.8 32.0897 28.8 31.9204 28.8L27.8932 28.7222V3.34703H25.281V1.82919L30.6506 0ZM32.392 26.6595C32.5855 26.6854 32.779 26.6984 32.9725 26.6984C33.1902 26.6984 33.3837 26.6984 33.553 26.6984C35.754 26.6984 37.3625 26.0886 38.3783 24.8692C39.4184 23.6497 39.9384 21.7687 39.9384 19.2259C39.9384 16.9946 39.4788 15.3081 38.5597 14.1665C37.6406 12.9989 36.3466 12.4151 34.6777 12.4151C34.3633 12.4151 34.0126 12.4411 33.6256 12.493C33.2386 12.5449 32.8274 12.6227 32.392 12.7265V26.6595Z" fill="#0D6EFD"/>
<path d="M0 32H44.8" stroke="#111111"/>
</svg>
