<svg width="177" height="33" viewBox="0 0 177 33" fill="none" xmlns="http://www.w3.org/2000/svg">
<path d="M11.2128 2.6112C15.6672 2.6112 19.0848 3.7504 21.4656 6.0288C23.8464 8.3072 25.0368 11.4688 25.0368 15.5136C25.0368 20.0704 23.4624 23.552 20.3136 25.9584C19.136 26.88 17.8048 27.52 16.32 27.8784C14.8352 28.2112 13.1328 28.3776 11.2128 28.3776H0V26.496L2.3424 26.304L2.9568 25.6896V5.2992L2.3424 4.6848L0 4.4928V2.6112H11.2128ZM8.0256 4.7616V26.2272H10.2528C16.2944 26.2272 19.3152 22.6432 19.3152 15.4752C19.3152 8.3328 16.2944 4.7616 10.2528 4.7616H8.0256Z" fill="#0D6EFD"/>
<path d="M32.5947 0.575999C33.4651 0.575999 34.1563 0.8448 34.6683 1.3824C35.2059 1.92 35.4747 2.5856 35.4747 3.3792C35.4747 4.2496 35.2059 4.9536 34.6683 5.4912C34.1307 6.0288 33.4523 6.2976 32.6331 6.2976C31.8651 6.2976 31.1995 6.0416 30.6363 5.5296C30.0987 4.992 29.8299 4.3008 29.8299 3.456C29.8299 2.6368 30.0859 1.9584 30.5979 1.4208C31.1355 0.8576 31.8011 0.575999 32.5947 0.575999ZM33.0171 9.3312H34.8603V25.92L35.4363 26.496L37.5867 26.6496V28.3776H27.5259V26.6496L29.5995 26.496L30.1371 25.92V12.672H27.6027V11.136L33.0171 9.3312Z" fill="#0D6EFD"/>
<path d="M53.2419 10.1376V15.2448H50.9379L50.5539 12.3648L50.0931 11.9424C49.6835 11.7376 49.2611 11.584 48.8259 11.4816C48.4163 11.3792 47.9939 11.328 47.5587 11.328C46.6115 11.328 45.8819 11.5328 45.3699 11.9424C44.8835 12.352 44.6403 12.9152 44.6403 13.632C44.6403 14.4256 44.9475 15.0528 45.5619 15.5136C46.2019 15.9488 47.0851 16.448 48.2115 17.0112C49.3635 17.5488 50.3491 18.0608 51.1683 18.5472C52.0131 19.0336 52.6659 19.584 53.1267 20.1984C53.5875 20.7872 53.8179 21.5424 53.8179 22.464C53.8179 24.4096 53.1267 25.9584 51.7443 27.1104C50.3875 28.2368 48.4675 28.8 45.9843 28.8C44.0899 28.8 41.9779 28.48 39.6483 27.84V22.1568H41.9907L42.4131 25.4592L42.7971 25.8816C43.7955 26.4192 44.8707 26.688 46.0227 26.688C47.0723 26.688 47.8787 26.4448 48.4419 25.9584C49.0051 25.4464 49.2867 24.768 49.2867 23.9232C49.2867 23.232 49.0691 22.6944 48.6339 22.3104C48.1987 21.9008 47.5971 21.5296 46.8291 21.1968C46.0867 20.864 45.2163 20.4544 44.2179 19.968C42.8099 19.2512 41.7347 18.5216 40.9923 17.7792C40.2755 17.0112 39.9171 16.0512 39.9171 14.8992C39.9171 13.2352 40.5827 11.8656 41.9139 10.7904C43.2451 9.7152 45.0883 9.1776 47.4435 9.1776C49.3891 9.1776 51.3219 9.4976 53.2419 10.1376Z" fill="#0D6EFD"/>
<path d="M58.4745 12.48H55.9785V11.0208L58.8201 9.408L60.8169 5.4144H63.2361V10.176H68.9193V12.48H63.2361V22.0416C63.2361 23.3984 63.4537 24.3584 63.8889 24.9216C64.3241 25.4848 65.1689 25.7664 66.4233 25.7664C67.3705 25.7664 68.2025 25.6768 68.9193 25.4976V27.3408C67.7673 27.7504 66.6921 28.0576 65.6937 28.2624C64.7209 28.4672 63.8377 28.5696 63.0441 28.5696C62.4041 28.5696 61.8153 28.5056 61.2777 28.3776C60.7657 28.2496 60.2921 28.032 59.8569 27.7248C59.1913 27.2896 58.7945 26.752 58.6665 26.112C58.5385 25.4464 58.4745 24.6272 58.4745 23.6544V12.48Z" fill="#0D6EFD"/>
<path d="M70.1634 28.3776V26.6496L72.1986 26.496L72.7362 25.92V12.672H69.9714V11.136L75.6162 9.3312H77.4594L77.3058 13.248C77.997 12.5056 78.7138 11.8144 79.4562 11.1744C80.2242 10.5088 81.005 9.8944 81.7986 9.3312C81.9266 9.3056 82.0674 9.2928 82.221 9.2928C82.3746 9.2672 82.5154 9.2544 82.6434 9.2544C83.4626 9.2544 84.3074 9.472 85.1778 9.9072L84.6786 15.2064H82.6818C82.1186 14.2848 81.2866 13.824 80.1858 13.824C79.5458 13.824 78.637 14.1824 77.4594 14.8992V25.92L78.0354 26.496L80.7618 26.6496V28.3776H70.1634Z" fill="#0D6EFD"/>
<path d="M91.3947 0.575999C92.2651 0.575999 92.9563 0.8448 93.4683 1.3824C94.0059 1.92 94.2747 2.5856 94.2747 3.3792C94.2747 4.2496 94.0059 4.9536 93.4683 5.4912C92.9307 6.0288 92.2523 6.2976 91.4331 6.2976C90.6651 6.2976 89.9995 6.0416 89.4363 5.5296C88.8987 4.992 88.6299 4.3008 88.6299 3.456C88.6299 2.6368 88.8859 1.9584 89.3979 1.4208C89.9355 0.8576 90.6011 0.575999 91.3947 0.575999ZM91.8171 9.3312H93.6603V25.92L94.2363 26.496L96.3867 26.6496V28.3776H86.3259V26.6496L88.3995 26.496L88.9371 25.92V12.672H86.4027V11.136L91.8171 9.3312Z" fill="#0D6EFD"/>
<path d="M102.941 0H104.784V10.9824C106.858 9.8304 108.714 9.2544 110.352 9.2544C111.811 9.2544 113.104 9.6256 114.231 10.368C115.383 11.0848 116.279 12.096 116.919 13.4016C117.584 14.7072 117.917 16.2304 117.917 17.9712C117.917 20.1984 117.392 22.1184 116.343 23.7312C115.319 25.344 113.821 26.5984 111.85 27.4944C110.442 28.1088 108.266 28.416 105.322 28.416C105.143 28.416 104.963 28.416 104.784 28.416C104.631 28.416 104.464 28.416 104.285 28.416L100.023 28.3392V3.3024H97.2579V1.8048L102.941 0ZM104.784 26.304C104.989 26.3296 105.194 26.3424 105.399 26.3424C105.629 26.3424 105.834 26.3424 106.013 26.3424C108.343 26.3424 110.045 25.7408 111.12 24.5376C112.221 23.3344 112.771 21.4784 112.771 18.9696C112.771 16.768 112.285 15.104 111.312 13.9776C110.34 12.8256 108.97 12.2496 107.203 12.2496C106.871 12.2496 106.499 12.2752 106.09 12.3264C105.68 12.3776 105.245 12.4544 104.784 12.5568V26.304Z" fill="#0D6EFD"/>
<path d="M125.334 9.216H127.177V21.12C127.177 22.6048 127.446 23.6928 127.984 24.384C128.547 25.0752 129.494 25.4208 130.825 25.4208C131.312 25.4208 131.824 25.3696 132.361 25.2672C132.899 25.1392 133.488 24.9856 134.128 24.8064V12.5568H131.632V11.0592L137.084 9.216H138.851V25.92L139.388 26.496L141.385 26.6496V28.3776H134.128V26.2656C132.924 27.0592 131.798 27.6736 130.748 28.1088C129.724 28.5184 128.7 28.7232 127.676 28.7232C124.169 28.7232 122.416 26.5344 122.416 22.1568V12.5568H119.92V11.0592L125.334 9.216Z" fill="#0D6EFD"/>
<path d="M145.287 12.48H142.791V11.0208L145.633 9.408L147.629 5.4144H150.049V10.176H155.732V12.48H150.049V22.0416C150.049 23.3984 150.266 24.3584 150.701 24.9216C151.137 25.4848 151.981 25.7664 153.236 25.7664C154.183 25.7664 155.015 25.6768 155.732 25.4976V27.3408C154.58 27.7504 153.505 28.0576 152.506 28.2624C151.533 28.4672 150.65 28.5696 149.857 28.5696C149.217 28.5696 148.628 28.5056 148.09 28.3776C147.578 28.2496 147.105 28.032 146.669 27.7248C146.004 27.2896 145.607 26.752 145.479 26.112C145.351 25.4464 145.287 24.6272 145.287 23.6544V12.48Z" fill="#0D6EFD"/>
<path d="M169.033 26.1888C167.805 27.008 166.653 27.6352 165.577 28.0704C164.528 28.5056 163.478 28.7232 162.429 28.7232C160.944 28.7232 159.728 28.2624 158.781 27.3408C157.859 26.3936 157.398 25.1904 157.398 23.7312C157.398 22.2464 157.808 21.0816 158.627 20.2368C159.472 19.392 160.752 18.688 162.467 18.1248C164.182 17.5616 166.384 16.9856 169.072 16.3968V15.2448C169.072 13.8624 168.777 12.8512 168.189 12.2112C167.625 11.5712 166.704 11.2512 165.424 11.2512C164.886 11.2512 164.272 11.328 163.581 11.4816V15.0912H160.048C159.485 15.0912 159.049 14.9888 158.742 14.784C158.435 14.5536 158.281 14.1824 158.281 13.6704C158.281 12.928 158.627 12.224 159.318 11.5584C160.009 10.8672 160.982 10.304 162.237 9.8688C163.491 9.4336 164.963 9.216 166.653 9.216C168.445 9.216 169.865 9.4464 170.915 9.9072C171.965 10.3424 172.707 11.0592 173.142 12.0576C173.603 13.056 173.833 14.3744 173.833 16.0128V25.9584L174.333 26.496L176.368 26.688V28.3776H169.533L169.033 26.1888ZM169.033 24.6144V18.3552C166.781 18.8416 165.117 19.4048 164.041 20.0448C162.992 20.6592 162.467 21.6064 162.467 22.8864C162.467 23.7568 162.723 24.4608 163.235 24.9984C163.747 25.5104 164.438 25.7664 165.309 25.7664C166.307 25.7664 167.549 25.3824 169.033 24.6144Z" fill="#0D6EFD"/>
<path d="M0 32H176" stroke="white"/>
<path d="M32.5959 0.576172C33.4663 0.576172 34.1575 0.844972 34.6695 1.38257C35.2071 1.92017 35.4759 2.58577 35.4759 3.37937C35.4759 4.24977 35.2071 4.95377 34.6695 5.49137C34.1319 6.02897 33.4535 6.29777 32.6343 6.29777C31.8663 6.29777 31.2007 6.04177 30.6375 5.52977C30.0999 4.99217 29.8311 4.30097 29.8311 3.45617C29.8311 2.63697 30.0871 1.95857 30.5991 1.42097C31.1367 0.857772 31.8023 0.576172 32.5959 0.576172Z" fill="white"/>
<path d="M91.3959 0.576172C92.2663 0.576172 92.9574 0.844972 93.4694 1.38257C94.007 1.92017 94.2758 2.58577 94.2758 3.37937C94.2758 4.24977 94.007 4.95377 93.4694 5.49137C92.9318 6.02897 92.2534 6.29777 91.4342 6.29777C90.6662 6.29777 90.0006 6.04177 89.4374 5.52977C88.8998 4.99217 88.6311 4.30097 88.6311 3.45617C88.6311 2.63697 88.8871 1.95857 89.3991 1.42097C89.9366 0.857772 90.6023 0.576172 91.3959 0.576172Z" fill="white"/>
</svg>
