<svg width="13" height="12" viewBox="0 0 13 12" fill="none" xmlns="http://www.w3.org/2000/svg">
<g clip-path="url(#clip0_641_1602)">
<path d="M6 2H2.5C2.23478 2 1.98043 2.10536 1.79289 2.29289C1.60536 2.48043 1.5 2.73478 1.5 3V10C1.5 10.2652 1.60536 10.5196 1.79289 10.7071C1.98043 10.8946 2.23478 11 2.5 11H9.5C9.76522 11 10.0196 10.8946 10.2071 10.7071C10.3946 10.5196 10.5 10.2652 10.5 10V6.5" stroke="black" stroke-linecap="round" stroke-linejoin="round"/>
<path d="M9.75 1.24999C9.94891 1.05108 10.2187 0.939331 10.5 0.939331C10.7813 0.939331 11.0511 1.05108 11.25 1.24999C11.4489 1.4489 11.5607 1.71869 11.5607 1.99999C11.5607 2.2813 11.4489 2.55108 11.25 2.74999L6.5 7.49999L4.5 7.99999L5 5.99999L9.75 1.24999Z" stroke="black" stroke-linecap="round" stroke-linejoin="round"/>
</g>
<defs>
<clipPath id="clip0_641_1602">
<rect width="12" height="12" fill="white" transform="translate(0.5)"/>
</clipPath>
</defs>
</svg>
