<svg width="96" height="96" viewBox="0 0 96 96" fill="none" xmlns="http://www.w3.org/2000/svg">
<rect width="96" height="96" fill="#FAFAFA" fill-opacity="0.92"/>
<g clip-path="url(#clip0_615_1532)">
<path d="M45.0078 58.1633H46.8828V51.0906H45.0078V58.1633ZM45.0078 49.9876H46.8828V48.3056H45.0078V49.9876Z" fill="black"/>
<path d="M48.0898 60.4795H49.9649V57.3637H49.9925C50.3923 57.9702 51.0403 58.3701 52.0329 58.3701C53.8528 58.3701 55.0936 56.9225 55.0936 54.6338C55.0936 52.4279 53.8941 50.8976 52.0191 50.8976C51.054 50.8976 50.3923 51.3526 49.9373 51.9729H49.8959V51.0906H48.0898V60.4795ZM51.6331 56.8121C50.5164 56.8121 49.9235 55.9712 49.9235 54.689C49.9235 53.4206 50.3923 52.4141 51.5642 52.4141C52.7223 52.4141 53.191 53.3516 53.191 54.689C53.191 56.0263 52.5844 56.8121 51.6331 56.8121Z" fill="black"/>
<path d="M58.8343 58.3701C60.599 58.3701 61.8122 57.5153 61.8122 56.0952C61.8122 54.4408 60.5025 54.1099 59.3168 53.8618C58.3104 53.655 57.3728 53.5998 57.3728 52.9932C57.3728 52.4831 57.8554 52.2073 58.5861 52.2073C59.3858 52.2073 59.8683 52.4831 59.951 53.2414H61.6468C61.5089 51.8213 60.4749 50.8976 58.6137 50.8976C57.0006 50.8976 55.7322 51.6283 55.7322 53.1586C55.7322 54.7027 56.9731 55.0475 58.2414 55.2956C59.2065 55.4886 60.1027 55.5576 60.1027 56.2331C60.1027 56.7294 59.6339 57.0465 58.8067 57.0465C57.9657 57.0465 57.3866 56.6881 57.2626 55.8746H55.5254C55.6357 57.3774 56.78 58.3701 58.8343 58.3701Z" fill="black"/>
<path d="M68.9317 58.1633V51.0906H67.0567V55.1715C67.0567 56.109 66.519 56.7708 65.6366 56.7708C64.837 56.7708 64.4648 56.3158 64.4648 55.4886V51.0906H62.6035V55.8057C62.6035 57.3498 63.4859 58.3563 65.0576 58.3563C66.0503 58.3563 66.6017 57.984 67.0843 57.336H67.1257V58.1633H68.9317Z" fill="black"/>
<path d="M70.1445 58.1633H72.0196V54.0547C72.0196 53.1172 72.5297 52.5107 73.288 52.5107C73.9773 52.5107 74.3772 52.9242 74.3772 53.7239V58.1633H76.2522V54.0547C76.2522 53.1172 76.7347 52.5107 77.5206 52.5107C78.2099 52.5107 78.6097 52.9242 78.6097 53.7239V58.1633H80.4848V53.4068C80.4848 51.8627 79.6437 50.8976 78.1548 50.8976C77.2586 50.8976 76.5141 51.3663 76.0316 52.1384H76.004C75.6593 51.3939 74.9424 50.8976 74.0462 50.8976C73.0674 50.8976 72.378 51.3939 71.992 52.0419H71.9506V51.0906H70.1445V58.1633Z" fill="black"/>
<path d="M45.0352 46.0494H46.9102V36.1917H45.0352V46.0494Z" fill="black"/>
<path d="M51.4957 46.2562C53.6878 46.2562 55.1906 44.6293 55.1906 42.5199C55.1906 40.4105 53.6878 38.7837 51.4957 38.7837C49.3036 38.7837 47.8008 40.4105 47.8008 42.5199C47.8008 44.6293 49.3036 46.2562 51.4957 46.2562ZM51.4957 44.8224C50.3376 44.8224 49.7034 43.8986 49.7034 42.5199C49.7034 41.1412 50.3376 40.2037 51.4957 40.2037C52.64 40.2037 53.288 41.1412 53.288 42.5199C53.288 43.8986 52.64 44.8224 51.4957 44.8224Z" fill="black"/>
<path d="M59.1773 48.4621C60.2252 48.4621 61.1351 48.214 61.7279 47.6625C62.2518 47.1799 62.5689 46.5043 62.5689 45.5117V38.9767H60.7628V39.7212H60.7353C60.3079 39.1284 59.6599 38.7837 58.7775 38.7837C56.9852 38.7837 55.7168 40.1348 55.7168 42.2442C55.7168 44.3812 57.261 45.622 58.8327 45.622C59.7288 45.622 60.2665 45.2635 60.6801 44.7948H60.7215V45.5668C60.7215 46.5319 60.2114 47.042 59.1498 47.042C58.2812 47.042 57.8814 46.6974 57.7297 46.2562H55.8685C56.0615 47.6349 57.2472 48.4621 59.1773 48.4621ZM59.1498 44.1192C58.1847 44.1192 57.5505 43.4161 57.5505 42.2166C57.5505 41.031 58.1847 40.2865 59.136 40.2865C60.2665 40.2865 60.818 41.1688 60.818 42.2029C60.818 43.2506 60.3354 44.1192 59.1498 44.1192Z" fill="black"/>
<path d="M67.1265 46.2562C69.3186 46.2562 70.8214 44.6293 70.8214 42.5199C70.8214 40.4105 69.3186 38.7837 67.1265 38.7837C64.9345 38.7837 63.4316 40.4105 63.4316 42.5199C63.4316 44.6293 64.9345 46.2562 67.1265 46.2562ZM67.1265 44.8224C65.9684 44.8224 65.3342 43.8986 65.3342 42.5199C65.3342 41.1412 65.9684 40.2037 67.1265 40.2037C68.2709 40.2037 68.9189 41.1412 68.9189 42.5199C68.9189 43.8986 68.2709 44.8224 67.1265 44.8224Z" fill="black"/>
<path d="M72.4648 43.3472H80.5714V41.7341H72.4648V43.3472Z" fill="black"/>
<path d="M81.166 49.8892C81.166 49.5719 81.4232 49.3147 81.7406 49.3147H82.8892C83.2067 49.3147 83.4638 49.5719 83.4638 49.8892C83.4638 50.2064 83.2067 50.4636 82.8892 50.4636H81.7406C81.4232 50.4636 81.166 50.2064 81.166 49.8892Z" fill="black"/>
<path fill-rule="evenodd" clip-rule="evenodd" d="M26.0717 34C33.6459 34 39.786 40.1401 39.786 47.7143C39.786 55.2885 33.6459 61.4286 26.0717 61.4286C18.4975 61.4286 12.3574 55.2885 12.3574 47.7143C12.3574 40.1401 18.4975 34 26.0717 34ZM25.576 35.0262C24.0115 35.2464 22.5217 36.5036 21.3652 38.6062C21.0298 39.2161 20.7271 39.8899 20.4633 40.6174C22.0358 40.2223 23.7632 39.9893 25.576 39.9533V35.0262ZM19.3043 40.9468C19.6322 39.9174 20.0335 38.9703 20.4966 38.1284C21.0698 37.0861 21.7502 36.186 22.5168 35.4947C18.3484 36.7053 15.0627 39.9909 13.8521 44.1593C14.5434 43.3928 15.4435 42.7124 16.4859 42.1392C17.3278 41.6761 18.2748 41.2748 19.3043 40.9468ZM18.9748 42.1059C18.5797 43.6784 18.3467 45.4058 18.3107 47.2186H13.3837C13.6038 45.654 14.861 44.1642 16.9636 43.0078C17.5735 42.6724 18.2473 42.3697 18.9748 42.1059ZM19.3023 47.2186C19.3433 45.2402 19.628 43.3829 20.0993 41.7419C21.7403 41.2706 23.5977 40.9858 25.576 40.9448V43.0863C24.838 44.9757 23.3327 46.4808 21.4432 47.2186H19.3023ZM18.3107 48.21H13.3837C13.6038 49.7746 14.861 51.2643 16.9636 52.4208C17.5735 52.7562 18.2473 53.0589 18.9748 53.3227C18.5797 51.7502 18.3467 50.0228 18.3107 48.21ZM20.0993 53.6867C19.628 52.0457 19.3433 50.1883 19.3023 48.21H21.4432C23.3327 48.9478 24.838 50.4529 25.576 52.3423V54.4837C23.5977 54.4428 21.7403 54.1579 20.0993 53.6867ZM19.3043 54.4817C18.2748 54.1538 17.3278 53.7525 16.4859 53.2894C15.4435 52.7162 14.5434 52.0358 13.8521 51.2692C15.0627 55.4376 18.3484 58.7233 22.5168 59.9339C21.7502 59.2425 21.0698 58.3424 20.4966 57.3001C20.0335 56.4582 19.6322 55.5111 19.3043 54.4817ZM25.576 60.4023C24.0115 60.1821 22.5217 58.925 21.3652 56.8224C21.0298 56.2125 20.7271 55.5386 20.4633 54.8112C22.0358 55.2063 23.7632 55.4393 25.576 55.4753V60.4023ZM29.6267 59.9339C30.3932 59.2425 31.0736 58.3424 31.6469 57.3001C32.1099 56.4582 32.5112 55.5111 32.8392 54.4817C33.8685 54.1538 34.8157 53.7525 35.6576 53.2894C36.6999 52.7162 37.6 52.0358 38.2913 51.2692C37.0807 55.4376 33.795 58.7233 29.6267 59.9339ZM31.6801 54.8112C31.4163 55.5386 31.1136 56.2125 30.7782 56.8224C29.6218 58.925 28.132 60.1821 26.5674 60.4023V55.4753C28.3802 55.4393 30.1076 55.2063 31.6801 54.8112ZM33.1686 53.3227C33.896 53.0589 34.5699 52.7562 35.1798 52.4208C37.2824 51.2643 38.5396 49.7746 38.7598 48.21H33.8327C33.7967 50.0228 33.5637 51.7502 33.1686 53.3227ZM32.8411 48.21C32.8002 50.1883 32.5154 52.0457 32.0441 53.6867C30.4031 54.1579 28.5458 54.4428 26.5674 54.4837V52.3439C27.3052 50.4538 28.8108 48.948 30.7008 48.21H32.8411ZM33.8327 47.2186H38.7598C38.5396 45.654 37.2824 44.1642 35.1798 43.0078C34.5699 42.6724 33.896 42.3697 33.1686 42.1059C33.5637 43.6784 33.7967 45.4058 33.8327 47.2186ZM32.0441 41.7419C32.5154 43.3829 32.8002 45.2402 32.8411 47.2186H30.7008C28.8108 46.4806 27.3052 44.9748 26.5674 43.0847V40.9448C28.5458 40.9858 30.4031 41.2706 32.0441 41.7419ZM32.8392 40.9468C33.8685 41.2748 34.8157 41.6761 35.6576 42.1392C36.6999 42.7124 37.6 43.3928 38.2913 44.1593C37.0807 39.9909 33.795 36.7053 29.6267 35.4947C30.3932 36.186 31.0736 37.0861 31.6469 38.1284C32.1099 38.9703 32.5112 39.9174 32.8392 40.9468ZM26.5674 35.0262C28.132 35.2464 29.6218 36.5036 30.7782 38.6062C31.1136 39.2161 31.4163 39.8899 31.6801 40.6174C30.1076 40.2223 28.3802 39.9893 26.5674 39.9533V35.0262Z" fill="black"/>
</g>
<defs>
<clipPath id="clip0_615_1532">
<rect width="72" height="27.4286" fill="white" transform="translate(12 34)"/>
</clipPath>
</defs>
</svg>
