<svg width="111" height="21" viewBox="0 0 111 21" fill="none" xmlns="http://www.w3.org/2000/svg">
<path d="M7.008 1.632C9.792 1.632 11.928 2.344 13.416 3.768C14.904 5.192 15.648 7.168 15.648 9.696C15.648 12.544 14.664 14.72 12.696 16.224C11.96 16.8 11.128 17.2 10.2 17.424C9.272 17.632 8.208 17.736 7.008 17.736H0V16.56L1.464 16.44L1.848 16.056V3.312L1.464 2.928L0 2.808V1.632H7.008ZM5.016 2.976V16.392H6.408C10.184 16.392 12.072 14.152 12.072 9.672C12.072 5.208 10.184 2.976 6.408 2.976H5.016Z" fill="#0D6EFD"/>
<path d="M20.3717 0.36C20.9157 0.36 21.3477 0.528 21.6677 0.864C22.0037 1.2 22.1717 1.616 22.1717 2.112C22.1717 2.656 22.0037 3.096 21.6677 3.432C21.3317 3.768 20.9077 3.936 20.3957 3.936C19.9157 3.936 19.4997 3.776 19.1477 3.456C18.8117 3.12 18.6437 2.688 18.6437 2.16C18.6437 1.648 18.8037 1.224 19.1237 0.888C19.4597 0.536 19.8757 0.36 20.3717 0.36ZM20.6357 5.832H21.7877V16.2L22.1477 16.56L23.4917 16.656V17.736H17.2037V16.656L18.4997 16.56L18.8357 16.2V7.92H17.2517V6.96L20.6357 5.832Z" fill="#0D6EFD"/>
<path d="M33.2762 6.336V9.528H31.8362L31.5962 7.728L31.3082 7.464C31.0522 7.336 30.7882 7.24 30.5162 7.176C30.2602 7.112 29.9962 7.08 29.7242 7.08C29.1322 7.08 28.6762 7.208 28.3562 7.464C28.0522 7.72 27.9002 8.072 27.9002 8.52C27.9002 9.016 28.0922 9.408 28.4762 9.696C28.8762 9.968 29.4282 10.28 30.1322 10.632C30.8522 10.968 31.4682 11.288 31.9802 11.592C32.5082 11.896 32.9162 12.24 33.2042 12.624C33.4922 12.992 33.6362 13.464 33.6362 14.04C33.6362 15.256 33.2042 16.224 32.3402 16.944C31.4922 17.648 30.2922 18 28.7402 18C27.5562 18 26.2362 17.8 24.7802 17.4V13.848H26.2442L26.5082 15.912L26.7482 16.176C27.3722 16.512 28.0442 16.68 28.7642 16.68C29.4202 16.68 29.9242 16.528 30.2762 16.224C30.6282 15.904 30.8042 15.48 30.8042 14.952C30.8042 14.52 30.6682 14.184 30.3962 13.944C30.1242 13.688 29.7482 13.456 29.2682 13.248C28.8042 13.04 28.2602 12.784 27.6362 12.48C26.7562 12.032 26.0842 11.576 25.6202 11.112C25.1722 10.632 24.9482 10.032 24.9482 9.312C24.9482 8.272 25.3642 7.416 26.1962 6.744C27.0282 6.072 28.1802 5.736 29.6522 5.736C30.8682 5.736 32.0762 5.936 33.2762 6.336Z" fill="#0D6EFD"/>
<path d="M36.5466 7.8H34.9866V6.888L36.7626 5.88L38.0106 3.384H39.5226V6.36H43.0746V7.8H39.5226V13.776C39.5226 14.624 39.6586 15.224 39.9306 15.576C40.2026 15.928 40.7306 16.104 41.5146 16.104C42.1066 16.104 42.6266 16.048 43.0746 15.936V17.088C42.3546 17.344 41.6826 17.536 41.0586 17.664C40.4506 17.792 39.8986 17.856 39.4026 17.856C39.0026 17.856 38.6346 17.816 38.2986 17.736C37.9786 17.656 37.6826 17.52 37.4106 17.328C36.9946 17.056 36.7466 16.72 36.6666 16.32C36.5866 15.904 36.5466 15.392 36.5466 14.784V7.8Z" fill="#0D6EFD"/>
<path d="M43.8521 17.736V16.656L45.1241 16.56L45.4601 16.2V7.92H43.7321V6.96L47.2601 5.832H48.4121L48.3161 8.28C48.7481 7.816 49.1961 7.384 49.6601 6.984C50.1401 6.568 50.6281 6.184 51.1241 5.832C51.2041 5.816 51.2921 5.808 51.3881 5.808C51.4841 5.792 51.5721 5.784 51.6521 5.784C52.1641 5.784 52.6921 5.92 53.2361 6.192L52.9241 9.504H51.6761C51.3241 8.928 50.8041 8.64 50.1161 8.64C49.7161 8.64 49.1481 8.864 48.4121 9.312V16.2L48.7721 16.56L50.4761 16.656V17.736H43.8521Z" fill="#0D6EFD"/>
<path d="M57.1217 0.36C57.6657 0.36 58.0977 0.528 58.4177 0.864C58.7537 1.2 58.9217 1.616 58.9217 2.112C58.9217 2.656 58.7537 3.096 58.4177 3.432C58.0817 3.768 57.6577 3.936 57.1457 3.936C56.6657 3.936 56.2497 3.776 55.8977 3.456C55.5617 3.12 55.3937 2.688 55.3937 2.16C55.3937 1.648 55.5537 1.224 55.8737 0.888C56.2097 0.536 56.6257 0.36 57.1217 0.36ZM57.3857 5.832H58.5377V16.2L58.8977 16.56L60.2417 16.656V17.736H53.9537V16.656L55.2497 16.56L55.5857 16.2V7.92H54.0017V6.96L57.3857 5.832Z" fill="#0D6EFD"/>
<path d="M64.3382 0H65.4902V6.864C66.7862 6.144 67.9462 5.784 68.9702 5.784C69.8822 5.784 70.6902 6.016 71.3942 6.48C72.1142 6.928 72.6742 7.56 73.0742 8.376C73.4902 9.192 73.6982 10.144 73.6982 11.232C73.6982 12.624 73.3702 13.824 72.7142 14.832C72.0742 15.84 71.1382 16.624 69.9062 17.184C69.0262 17.568 67.6662 17.76 65.8262 17.76C65.7142 17.76 65.6022 17.76 65.4902 17.76C65.3942 17.76 65.2902 17.76 65.1782 17.76L62.5142 17.712V2.064H60.7862V1.128L64.3382 0ZM65.4902 16.44C65.6182 16.456 65.7462 16.464 65.8742 16.464C66.0182 16.464 66.1462 16.464 66.2582 16.464C67.7142 16.464 68.7782 16.088 69.4502 15.336C70.1382 14.584 70.4822 13.424 70.4822 11.856C70.4822 10.48 70.1782 9.44 69.5702 8.736C68.9622 8.016 68.1062 7.656 67.0022 7.656C66.7942 7.656 66.5622 7.672 66.3062 7.704C66.0502 7.736 65.7782 7.784 65.4902 7.848V16.44Z" fill="#0D6EFD"/>
<path d="M78.3337 5.76H79.4857V13.2C79.4857 14.128 79.6538 14.808 79.9898 15.24C80.3418 15.672 80.9337 15.888 81.7657 15.888C82.0697 15.888 82.3898 15.856 82.7258 15.792C83.0618 15.712 83.4297 15.616 83.8298 15.504V7.848H82.2698V6.912L85.6777 5.76H86.7818V16.2L87.1178 16.56L88.3658 16.656V17.736H83.8298V16.416C83.0778 16.912 82.3737 17.296 81.7178 17.568C81.0778 17.824 80.4378 17.952 79.7978 17.952C77.6058 17.952 76.5098 16.584 76.5098 13.848V7.848H74.9498V6.912L78.3337 5.76Z" fill="#0D6EFD"/>
<path d="M90.8044 7.8H89.2444V6.888L91.0204 5.88L92.2684 3.384H93.7804V6.36H97.3324V7.8H93.7804V13.776C93.7804 14.624 93.9164 15.224 94.1884 15.576C94.4604 15.928 94.9884 16.104 95.7724 16.104C96.3644 16.104 96.8844 16.048 97.3324 15.936V17.088C96.6124 17.344 95.9404 17.536 95.3164 17.664C94.7084 17.792 94.1564 17.856 93.6604 17.856C93.2604 17.856 92.8924 17.816 92.5564 17.736C92.2364 17.656 91.9404 17.52 91.6684 17.328C91.2524 17.056 91.0044 16.72 90.9244 16.32C90.8444 15.904 90.8044 15.392 90.8044 14.784V7.8Z" fill="#0D6EFD"/>
<path d="M105.646 16.368C104.878 16.88 104.158 17.272 103.486 17.544C102.83 17.816 102.174 17.952 101.518 17.952C100.59 17.952 99.8299 17.664 99.2379 17.088C98.6619 16.496 98.3739 15.744 98.3739 14.832C98.3739 13.904 98.6299 13.176 99.1419 12.648C99.6699 12.12 100.47 11.68 101.542 11.328C102.614 10.976 103.99 10.616 105.67 10.248V9.528C105.67 8.664 105.486 8.032 105.118 7.632C104.766 7.232 104.19 7.032 103.39 7.032C103.054 7.032 102.67 7.08 102.238 7.176V9.432H100.03C99.6779 9.432 99.4059 9.368 99.2139 9.24C99.0219 9.096 98.9259 8.864 98.9259 8.544C98.9259 8.08 99.1419 7.64 99.5739 7.224C100.006 6.792 100.614 6.44 101.398 6.168C102.182 5.896 103.102 5.76 104.158 5.76C105.278 5.76 106.166 5.904 106.822 6.192C107.478 6.464 107.942 6.912 108.214 7.536C108.502 8.16 108.646 8.984 108.646 10.008V16.224L108.958 16.56L110.23 16.68V17.736H105.958L105.646 16.368ZM105.646 15.384V11.472C104.238 11.776 103.198 12.128 102.526 12.528C101.87 12.912 101.542 13.504 101.542 14.304C101.542 14.848 101.702 15.288 102.022 15.624C102.342 15.944 102.774 16.104 103.318 16.104C103.942 16.104 104.718 15.864 105.646 15.384Z" fill="#0D6EFD"/>
<path d="M0 20H110" stroke="#111111"/>
<path d="M20.3725 0.360107C20.9165 0.360107 21.3485 0.528108 21.6685 0.864108C22.0045 1.20011 22.1725 1.61611 22.1725 2.11211C22.1725 2.65611 22.0045 3.09611 21.6685 3.43211C21.3325 3.76811 20.9085 3.93611 20.3965 3.93611C19.9165 3.93611 19.5005 3.77611 19.1485 3.45611C18.8125 3.12011 18.6445 2.68811 18.6445 2.16011C18.6445 1.64811 18.8045 1.22411 19.1245 0.888108C19.4605 0.536108 19.8765 0.360107 20.3725 0.360107Z" fill="#111111"/>
<path d="M57.1225 0.360107C57.6665 0.360107 58.0985 0.528108 58.4185 0.864108C58.7545 1.20011 58.9225 1.61611 58.9225 2.11211C58.9225 2.65611 58.7545 3.09611 58.4185 3.43211C58.0825 3.76811 57.6585 3.93611 57.1465 3.93611C56.6665 3.93611 56.2505 3.77611 55.8985 3.45611C55.5625 3.12011 55.3945 2.68811 55.3945 2.16011C55.3945 1.64811 55.5545 1.22411 55.8745 0.888108C56.2105 0.536108 56.6265 0.360107 57.1225 0.360107Z" fill="#111111"/>
</svg>
